<?xml version="1.0" standalone="no"?>
<!DOCTYPE svg PUBLIC "-//W3C//DTD SVG 20010904//EN"
 "http://www.w3.org/TR/2001/REC-SVG-20010904/DTD/svg10.dtd">
<svg version="1.0" xmlns="http://www.w3.org/2000/svg"
 width="378.000000pt" height="378.000000pt" viewBox="0 0 378.000000 378.000000"
 preserveAspectRatio="xMidYMid meet">
<metadata>
Created by potrace 1.14, written by Peter Selinger 2001-2017
</metadata>
<g transform="translate(0.000000,378.000000) scale(0.100000,-0.100000)"
fill="#000000" stroke="none">
<path d="M1655 3763 c-760 -94 -1391 -645 -1590 -1391 -14 -51 -28 -109 -31
-130 -3 -20 -7 -44 -9 -52 -18 -71 -26 -375 -12 -501 10 -91 35 -232 47 -264
5 -14 12 -40 15 -56 8 -46 77 -224 122 -314 129 -260 329 -504 548 -665 33
-25 62 -47 65 -50 14 -15 170 -107 243 -142 174 -85 390 -152 577 -179 154
-22 444 -17 595 12 189 34 457 131 589 212 194 118 281 185 409 312 245 244
419 551 501 885 39 160 50 262 50 455 0 193 -10 280 -54 455 -149 599 -581
1083 -1164 1306 -102 40 -292 91 -363 98 -26 3 -59 8 -73 11 -53 13 -358 11
-465 -2z"/>
</g>
</svg>
